<?xml version="1.0" encoding="UTF-8"?>
<!--Generator: Apple Native CoreSVG 149-->
<!DOCTYPE svg
PUBLIC "-//W3C//DTD SVG 1.1//EN"
       "http://www.w3.org/Graphics/SVG/1.1/DTD/svg11.dtd">
<svg version="1.1" id="Layer_1" xmlns="http://www.w3.org/2000/svg" xmlns:xlink="http://www.w3.org/1999/xlink" x="0px" y="0px"
	 viewBox="0 0 100 100" style="enable-background:new 0 0 712 717;" xml:space="preserve">
 <!--glyph: "uni100D5F.medium", point size: 100.0, font version: "17.0d9e1", template writer version: "59"-->
  <g id="Regular-S" transform="matrix(1 0 0 1 0 85)">
   <path d="M9.76562-35.2539Q9.76562-33.5938 11.1328-32.3242L36.3281-7.17773Q37.5977-5.95703 39.209-5.95703Q40.8203-5.95703 41.9189-7.03125Q43.0176-8.10547 43.0176-9.76562Q43.0176-10.5469 42.749-11.2793Q42.4805-12.0117 41.9434-12.5L35.2051-19.4824L18.7012-34.3262L17.8223-32.2266L30.8105-31.2988L76.9043-31.2988Q78.6621-31.2988 79.7363-32.4219Q80.8105-33.5449 80.8105-35.2539Q80.8105-36.9629 79.7363-38.0859Q78.6621-39.209 76.9043-39.209L30.8105-39.209L17.8223-38.2812L18.7012-36.1328L35.2051-51.0254L41.9434-58.0078Q42.4805-58.4961 42.749-59.2285Q43.0176-59.9609 43.0176-60.7422Q43.0176-62.4023 41.9189-63.4766Q40.8203-64.5508 39.209-64.5508Q37.5977-64.5508 36.3281-63.3301L11.1328-38.1836Q9.76562-36.9141 9.76562-35.2539Z"/>
  </g>
</svg>

