

<?xml version="1.0" encoding="UTF-8"?>
<!DOCTYPE svg PUBLIC "-//W3C//DTD SVG 1.1//EN" "http://www.w3.org/Graphics/SVG/1.1/DTD/svg11.dtd">
<svg version="1.1" id="Layer_1" xmlns="http://www.w3.org/2000/svg" xmlns:xlink="http://www.w3.org/1999/xlink" x="0px" y="0px" viewBox="0 0 100 100" style="enable-background:new 0 0 712 717;" xml:space="preserve">
       <g id="Regular-S" transform="matrix(1 0 0 1 -2 85)">
              <path d="M30.2246-70.4102L10.9863-50.6348Q9.76562-49.4141 9.76562-47.7539Q9.76562-45.9961 10.8398-44.9219Q11.9141-43.8477 13.6719-43.8477Q15.2344-43.8477 16.3574-44.9707L23.877-52.7832L29.6387-59.7656L29.1992-50.7324L29.1992-2.68555Q29.1992-0.927734 30.3223 0.170898Q31.4453 1.26953 33.1543 1.26953Q34.8633 1.26953 35.9863 0.170898Q37.1094-0.927734 37.1094-2.68555L37.1094-50.7324L36.6699-59.7656L42.4316-52.7832L49.9512-44.9707Q51.0742-43.8477 52.6367-43.8477Q54.3945-43.8477 55.4688-44.9219Q56.543-45.9961 56.543-47.7539Q56.543-49.4141 55.3223-50.6348L36.1328-70.4102Q34.8633-71.6797 33.1787-71.7041Q31.4941-71.7285 30.2246-70.4102ZM80.7129-0.0488281L99.9512-19.8242Q101.172-21.0449 101.172-22.7051Q101.172-24.4629 100.073-25.5371Q98.9746-26.6113 97.2656-26.6113Q95.6543-26.6113 94.5801-25.4883L87.0605-17.6758L81.2988-10.7422L81.6895-19.7266L81.6895-67.7734Q81.6895-69.4824 80.5908-70.5811Q79.4922-71.6797 77.7832-71.6797Q76.0254-71.6797 74.9268-70.5811Q73.8281-69.4824 73.8281-67.7734L73.8281-19.7266L74.2676-10.7422L68.457-17.6758L60.9375-25.4883Q59.8633-26.6113 58.252-26.6113Q56.543-26.6113 55.4688-25.5371Q54.3945-24.4629 54.3945-22.7051Q54.3945-21.0449 55.6152-19.8242L74.8047-0.0488281Q76.0254 1.26953 77.7344 1.29395Q79.4434 1.31836 80.7129-0.0488281Z"/>
       </g>
</svg>

