

<?xml version="1.0" encoding="UTF-8"?>
<!--Generator: Apple Native CoreSVG 149-->
<!DOCTYPE svg
PUBLIC "-//W3C//DTD SVG 1.1//EN"
       "http://www.w3.org/Graphics/SVG/1.1/DTD/svg11.dtd">
<svg version="1.1" id="Layer_1" xmlns="http://www.w3.org/2000/svg" xmlns:xlink="http://www.w3.org/1999/xlink" x="0px" y="0px"
	 viewBox="0 0 100 100" style="enable-background:new 0 0 712 717;" xml:space="preserve">

 <!--glyph: "uni100D5F.medium", point size: 100.0, font version: "17.0d9e1", template writer version: "59"-->
  <g id="Regular-S" transform="matrix(1 0 0 1 0 85)">
  <path d="M15.5273-10.5469L45.3125 6.49414Q47.0215 7.4707 48.6572 7.4707Q50.293 7.4707 51.9531 6.49414L81.7383-10.5469Q84.5215-12.1582 86.0352-14.209Q87.5488-16.2598 87.5488-20.8496L87.5488-50.3418Q87.5488-53.6621 86.3037-55.8594Q85.0586-58.0566 82.3242-59.668L56.2012-74.6582Q52.3438-76.8066 48.6328-76.8066Q44.9219-76.8066 41.1133-74.6582L14.9902-59.668Q12.2559-58.0566 11.0107-55.8594Q9.76562-53.6621 9.76562-50.3418L9.76562-20.8496Q9.76562-16.2598 11.2793-14.209Q12.793-12.1582 15.5273-10.5469ZM19.2871-16.3574Q17.7246-17.2852 17.041-18.3594Q16.3574-19.4336 16.3574-21.0449L16.3574-48.9746L45.2148-32.2754L45.2148-1.41602ZM78.0273-16.3574L52.0996-1.41602L52.0996-32.2754L80.957-48.9746L80.957-21.0449Q80.957-19.4336 80.2734-18.3594Q79.5898-17.2852 78.0273-16.3574ZM48.6328-38.3789L20.2148-54.6387L31.0547-60.9375L59.4238-44.5801ZM66.4551-48.584L37.8906-64.8438L43.8477-68.2617Q48.6816-71.0449 53.418-68.2617L77.0996-54.6387Z"/>
  </g>
</svg>


