<?xml version="1.0" encoding="UTF-8"?>
<!DOCTYPE svg PUBLIC "-//W3C//DTD SVG 1.1//EN" "http://www.w3.org/Graphics/SVG/1.1/DTD/svg11.dtd">
<svg version="1.1" id="Layer_1" xmlns="http://www.w3.org/2000/svg" xmlns:xlink="http://www.w3.org/1999/xlink" x="0px" y="0px" viewBox="0 0 100 100" style="enable-background:new 0 0 712 717;" xml:space="preserve">
       <g id="Regular-S" transform="matrix(1 0 0 1 15 85)">
              <path d="M52.9297-35.2539Q52.9297-36.9141 51.709-38.1348L21.5332-68.1152Q20.3613-69.2871 18.7012-69.2871Q16.9434-69.2871 15.7959-68.1396Q14.6484-66.9922 14.6484-65.2832Q14.6484-63.6719 15.8203-62.4023L43.1152-35.2539L15.8203-8.10547Q14.6484-6.83594 14.6484-5.22461Q14.6484-3.51562 15.7959-2.36816Q16.9434-1.2207 18.7012-1.2207Q20.3613-1.2207 21.5332-2.39258L51.709-32.373Q52.2949-33.0078 52.6123-33.7158Q52.9297-34.4238 52.9297-35.2539Z"/>
       </g>
</svg>

