<?xml version="1.0" encoding="UTF-8"?>
<!--Generator: Apple Native CoreSVG 149-->
<!DOCTYPE svg PUBLIC "-//W3C//DTD SVG 1.1//EN" "http://www.w3.org/Graphics/SVG/1.1/DTD/svg11.dtd">
<svg version="1.1" id="Layer_1" xmlns="http://www.w3.org/2000/svg" xmlns:xlink="http://www.w3.org/1999/xlink" x="0px" y="0px" viewBox="0 0 100 100" style="enable-background:new 0 0 712 717;" xml:space="preserve">
       <g id="Regular-S" transform="matrix(1 0 0 1 -4 85)">
             <path d="M23.9746-40.1855Q25.3418-40.1855 25.7324-41.7969L27.2949-45.9961L34.7168-45.9961L36.2793-41.7969Q36.7188-40.1855 38.0371-40.1855Q39.8926-40.1855 39.8926-41.8945Q39.8926-42.334 39.6973-43.0664L33.7402-59.1797Q32.959-61.2793 30.957-61.2793Q29.0527-61.2793 28.2715-59.1797L22.3145-43.0664Q22.1191-42.4316 22.1191-41.8945Q22.1191-41.1133 22.6074-40.6494Q23.0957-40.1855 23.9746-40.1855ZM28.125-48.9258L30.8594-57.2266L31.1035-57.2266L33.8867-48.9258ZM46.6309-54.7852L59.3262-54.7852Q60.2051-54.7852 60.8154-55.3955Q61.4258-56.0059 61.4258-56.8848Q61.4258-57.8125 60.8154-58.3984Q60.2051-58.9844 59.3262-58.9844L46.6309-58.9844Q45.7031-58.9844 45.0928-58.3984Q44.4824-57.8125 44.4824-56.8848Q44.4824-56.0059 45.0928-55.3955Q45.7031-54.7852 46.6309-54.7852ZM46.6309-41.4062L59.3262-41.4062Q60.2051-41.4062 60.8154-42.0166Q61.4258-42.627 61.4258-43.5547Q61.4258-44.3848 60.8154-44.9951Q60.2051-45.6055 59.3262-45.6055L46.6309-45.6055Q45.7031-45.6055 45.0928-44.9951Q44.4824-44.3848 44.4824-43.5547Q44.4824-42.627 45.0928-42.0166Q45.7031-41.4062 46.6309-41.4062ZM21.7285-9.0332L24.1211-9.0332L29.4434-14.3066Q30.5664-15.332 31.7871-15.332Q33.1055-15.332 34.2285-14.3066L37.4512-11.377L45.5566-18.5547Q46.9727-19.7266 48.3887-19.7266Q49.1211-19.7266 49.8535-19.458Q50.5859-19.1895 51.1719-18.5547L59.2285-9.375L61.6211-9.375L61.6211-28.3691Q61.6211-33.4473 56.543-33.4473L26.8066-33.4473Q21.7285-33.4473 21.7285-28.3691ZM34.5703-18.5547Q32.7637-18.5547 31.5186-19.8242Q30.2734-21.0938 30.2734-22.8516Q30.2734-24.6582 31.5186-25.9277Q32.7637-27.1973 34.5703-27.1484Q36.2793-27.0996 37.5488-25.8789Q38.8184-24.6582 38.8184-22.8516Q38.8184-21.0938 37.5488-19.8242Q36.2793-18.5547 34.5703-18.5547ZM9.76562-5.95703Q9.76562-0.195312 12.6465 2.73438Q15.5273 5.66406 21.2891 5.66406L62.0117 5.66406Q67.7734 5.66406 70.6787 2.73438Q73.584-0.195312 73.584-5.95703L73.584-64.502Q73.584-70.2637 70.6787-73.1934Q67.7734-76.123 62.0117-76.123L21.2891-76.123Q15.5273-76.123 12.6465-73.1934Q9.76562-70.2637 9.76562-64.502ZM15.1855-6.05469L15.1855-64.4043Q15.1855-67.4316 16.7969-69.0674Q18.4082-70.7031 21.582-70.7031L61.7676-70.7031Q64.8926-70.7031 66.5039-69.0674Q68.1152-67.4316 68.1152-64.4043L68.1152-6.05469Q68.1152-3.02734 66.5039-1.3916Q64.8926 0.244141 61.7676 0.244141L21.582 0.244141Q18.4082 0.244141 16.7969-1.3916Q15.1855-3.02734 15.1855-6.05469Z"/>
       </g>
</svg>
