<?xml version="1.0" encoding="UTF-8"?>
<!--Generator: Apple Native CoreSVG 149-->
<!DOCTYPE svg
PUBLIC "-//W3C//DTD SVG 1.1//EN"
       "http://www.w3.org/Graphics/SVG/1.1/DTD/svg11.dtd">
<svg version="1.1" id="Layer_1" xmlns="http://www.w3.org/2000/svg" xmlns:xlink="http://www.w3.org/1999/xlink" x="0px" y="0px"
	 viewBox="0 0 100 100" style="enable-background:new 0 0 712 717;" xml:space="preserve">
 <!--glyph: "uni100D5F.medium", point size: 100.0, font version: "17.0d9e1", template writer version: "59"-->
  <g id="Regular-S" transform="matrix(1 0 0 1 0 85)">
   <path d="M69.5312 6.49414L69.5312-70.2148Q69.5312-75.1465 66.9678-77.71Q64.4043-80.2734 59.4727-80.2734L26.5625-80.2734Q21.6309-80.2734 19.0674-77.71Q16.5039-75.1465 16.5039-70.2148L16.5039 6.49414ZM28.3203-38.0859Q26.0254-38.0859 24.707-39.2822Q23.3887-40.4785 23.3887-42.5781L23.3887-68.9453Q23.3887-71.0449 24.707-72.2412Q26.0254-73.4375 28.3203-73.4375L57.7148-73.4375Q60.0098-73.4375 61.3281-72.2412Q62.6465-71.0449 62.6465-68.9453L62.6465-42.5781Q62.6465-40.4785 61.3281-39.2822Q60.0098-38.0859 57.7148-38.0859ZM9.76562 6.29883Q9.76562 7.76367 10.8154 8.78906Q11.8652 9.81445 13.2812 9.81445L72.7539 9.81445Q74.1699 9.81445 75.2197 8.78906Q76.2695 7.76367 76.2695 6.29883Q76.2695 4.83398 75.2197 3.80859Q74.1699 2.7832 72.7539 2.7832L13.2812 2.7832Q11.8652 2.7832 10.8154 3.80859Q9.76562 4.83398 9.76562 6.29883ZM83.0566-1.85547Q87.2559-1.85547 89.8438-4.54102Q92.4316-7.22656 92.4316-11.6211L92.4316-50.8301Q92.4316-58.3496 89.6973-63.2812Q86.9141-67.9688 81.6406-69.5801Q80.4199-69.9219 79.2725-69.3115Q78.125-68.7012 77.7344-67.4805Q77.3926-66.2598 78.0029-65.1123Q78.6133-63.9648 79.834-63.5742Q80.5664-63.3789 81.7383-62.7686Q82.9102-62.1582 84.0332-60.6201Q85.1562-59.082 85.791-56.1035L80.5176-56.1035Q79.1504-56.1035 78.2471-55.1758Q77.3438-54.248 77.3438-52.8809L77.3438-37.4023Q77.3438-36.084 78.2715-35.1318Q79.1992-34.1797 80.5176-34.1797L86.2305-34.1797L86.2305-11.6211Q86.2305-10.0098 85.3516-9.05762Q84.4727-8.10547 83.0566-8.10547Q81.3477-8.10547 80.3223-9.05762Q79.2969-10.0098 79.2969-11.6211L79.2969-18.1152Q79.2969-23.0957 76.4404-25.8789Q73.584-28.6621 68.5547-28.6621L68.5547-22.4121Q70.7031-22.4121 71.9238-21.2646Q73.1445-20.1172 73.1445-18.1152L73.1445-11.6211Q73.1445-7.22656 75.8789-4.54102Q78.6133-1.85547 83.0566-1.85547Z"/>
  </g>
</svg>
