<?xml version="1.0" encoding="UTF-8"?>
<!--Generator: Apple Native CoreSVG 149-->
<!DOCTYPE svg
PUBLIC "-//W3C//DTD SVG 1.1//EN"
       "http://www.w3.org/Graphics/SVG/1.1/DTD/svg11.dtd">
<svg version="1.1" id="Layer_1" xmlns="http://www.w3.org/2000/svg" xmlns:xlink="http://www.w3.org/1999/xlink" x="0px" y="0px"
	 viewBox="0 0 100 100" style="enable-background:new 0 0 712 717;" xml:space="preserve">
 <!--glyph: "uni100D5F.medium", point size: 100.0, font version: "17.0d9e1", template writer version: "59"-->
  
 <g id="Regular-S" transform="matrix(1 0 0 1 0 85)">
   <path d="M17.6758 6.20117Q20.3125 8.83789 23.291 8.61816Q26.2695 8.39844 28.9062 5.41992L64.8438-35.8887L53.3691-47.4121L12.0605-11.4258Q8.98438-8.78906 8.78906-5.83496Q8.59375-2.88086 11.2305-0.244141ZM85.9863-27.1484Q87.3047-25.8789 88.7695-25.7812Q90.2344-25.6836 91.5039-26.9531L102.93-38.3301Q104.102-39.502 104.028-41.0156Q103.955-42.5293 102.686-43.8477L99.9512-46.5332Q98.9258-47.6074 98.0713-47.876Q97.2168-48.1445 96.1914-48.0469L91.2109-47.4121L88.5254-50.0488L89.9902-55.6641Q91.0156-59.8633 86.5234-64.3555L79.1504-71.7285Q75.0977-75.7324 69.6777-77.9053Q64.2578-80.0781 58.3496-80.2734Q52.4414-80.4688 46.8994-78.5156Q41.3574-76.5625 37.1582-72.3633Q35.6934-70.9473 35.8154-69.4336Q35.9375-67.9199 36.8652-66.9434Q37.6465-66.2598 38.6719-65.9668Q39.6973-65.6738 40.7227-66.0645Q46.2891-67.8711 51.1719-68.042Q56.0547-68.2129 60.2051-65.8691L57.2754-57.959Q56.2988-55.3711 56.7627-53.4912Q57.2266-51.6113 58.8867-50L67.2852-41.5527Q68.5059-40.332 69.9219-39.917Q71.3379-39.502 73.291-39.9414L79.6875-41.2109L82.2754-38.5742L81.7871-33.6426Q81.6895-32.4707 81.9336-31.6162Q82.1777-30.7617 83.252-29.7363Z"/>
  </g>
</svg>