<?xml version="1.0" encoding="UTF-8"?>
<!--Generator: Apple Native CoreSVG 149-->
<!DOCTYPE svg
PUBLIC "-//W3C//DTD SVG 1.1//EN"
       "http://www.w3.org/Graphics/SVG/1.1/DTD/svg11.dtd">
<svg version="1.1" id="Layer_1" xmlns="http://www.w3.org/2000/svg" xmlns:xlink="http://www.w3.org/1999/xlink" x="0px" y="0px"
	 viewBox="0 0 100 100" style="enable-background:new 0 0 712 717;" xml:space="preserve">

 <!--glyph: "uni100D5F.medium", point size: 100.0, font version: "17.0d9e1", template writer version: "59"-->
  <g id="Regular-S" transform="matrix(1 0 0 1 0 85)">
  <path d="M13.0371-15.625L84.375-15.625Q85.7422-15.625 86.7188-16.5771Q87.6953-17.5293 87.6953-18.9453Q87.6953-20.3125 86.7188-21.2891Q85.7422-22.2656 84.375-22.2656L13.0371-22.2656Q11.6699-22.2656 10.7178-21.2891Q9.76562-20.3125 9.76562-18.9453Q9.76562-17.5293 10.7178-16.5771Q11.6699-15.625 13.0371-15.625ZM13.0371-31.8848L84.375-31.8848Q85.7422-31.8848 86.7188-32.8613Q87.6953-33.8379 87.6953-35.2051Q87.6953-36.6211 86.7188-37.5732Q85.7422-38.5254 84.375-38.5254L13.0371-38.5254Q11.6699-38.5254 10.7178-37.5732Q9.76562-36.6211 9.76562-35.2051Q9.76562-33.8379 10.7178-32.8613Q11.6699-31.8848 13.0371-31.8848ZM13.0371-48.1934L84.375-48.1934Q85.7422-48.1934 86.7188-49.1455Q87.6953-50.0977 87.6953-51.4648Q87.6953-52.8809 86.7188-53.833Q85.7422-54.7852 84.375-54.7852L13.0371-54.7852Q11.6699-54.7852 10.7178-53.833Q9.76562-52.8809 9.76562-51.4648Q9.76562-50.0977 10.7178-49.1455Q11.6699-48.1934 13.0371-48.1934Z"/>
  </g>
</svg>


