


<?xml version="1.0" encoding="UTF-8"?>
<!DOCTYPE svg PUBLIC "-//W3C//DTD SVG 1.1//EN" "http://www.w3.org/Graphics/SVG/1.1/DTD/svg11.dtd">
<svg version="1.1" id="Layer_1" xmlns="http://www.w3.org/2000/svg" xmlns:xlink="http://www.w3.org/1999/xlink" x="0px" y="0px" viewBox="0 0 100 100" style="enable-background:new 0 0 712 717;" xml:space="preserve">
       <g id="Regular-S" transform="matrix(1 0 0 1 4 85)">
              <path class="hierarchical-0:secondary SFSymbolsPreview4D4D4D" d="M26.4648 0.830078L71.2402 0.830078Q76.8066 0.830078 79.9316-2.41699Q83.0566-5.66406 83.0566-11.9629L83.0566-52.4414L74.707-44.1406L74.707-12.6953Q74.707-10.1074 73.5352-8.81348Q72.3633-7.51953 70.752-7.51953L26.9531-7.51953Q24.5117-7.51953 23.1934-8.81348Q21.875-10.1074 21.875-12.6953L21.875-55.1758Q21.875-57.8125 23.1934-59.082Q24.5117-60.3516 26.9531-60.3516L58.8379-60.3516L67.1387-68.7012L26.4648-68.7012Q20.0684-68.7012 16.7969-65.4785Q13.5254-62.2559 13.5254-55.9082L13.5254-11.9629Q13.5254-5.66406 16.7969-2.41699Q20.0684 0.830078 26.4648 0.830078Z"/>
              <path class="hierarchical-1:primary SFSymbolsPreview212121" d="M40.4785-24.5605L48.7305-27.9785L83.4961-62.6953L77.1973-68.8965L42.4805-34.2285L38.916-26.1719Q38.5742-25.4883 39.1602-24.8779Q39.7461-24.2676 40.4785-24.5605ZM86.377-65.625L89.4043-68.75Q90.5273-69.9219 90.5762-71.46Q90.625-72.998 89.502-74.0723L88.3301-75.2441Q87.3535-76.2695 85.8398-76.1475Q84.3262-76.0254 83.252-74.9512L80.127-71.875Z"/>
       </g>
</svg>

