


<?xml version="1.0" encoding="UTF-8"?>
<!--Generator: Apple Native CoreSVG 149-->
<!DOCTYPE svg PUBLIC "-//W3C//DTD SVG 1.1//EN" "http://www.w3.org/Graphics/SVG/1.1/DTD/svg11.dtd">
<svg version="1.1" id="Layer_1" xmlns="http://www.w3.org/2000/svg" xmlns:xlink="http://www.w3.org/1999/xlink" x="0px" y="0px" viewBox="0 0 100 100" style="enable-background:new 0 0 712 717;" xml:space="preserve">
       <g id="Regular-S" transform="matrix(1 0 0 1 -4 85)">
              <path d="M96.2891-13.2812L73.291-34.7656Q71.875-35.8887 70.4346-36.5479Q68.9941-37.207 67.3828-37.207Q65.7715-37.207 64.3555-36.6211Q62.9395-36.0352 61.5723-34.8145L44.2383-19.3359L37.1094-25.8301Q35.8887-26.9043 34.6191-27.4902Q33.3496-28.0762 31.8848-28.0762Q30.6152-28.0762 29.3945-27.5146Q28.1738-26.9531 27.002-25.8789L12.5-12.6465Q12.793-7.66602 14.8193-5.2002Q16.8457-2.73438 21.0449-2.73438L86.2793-2.73438Q91.3086-2.73438 93.7744-5.49316Q96.2402-8.25195 96.2891-13.2812ZM38.0371-34.7656Q41.748-34.7656 44.3848-37.4023Q47.0215-40.0391 47.0215-43.7988Q47.0215-47.4609 44.3848-50.1465Q41.748-52.832 38.0371-52.832Q34.3262-52.832 31.665-50.1465Q29.0039-47.4609 29.0039-43.7988Q29.0039-40.0391 31.665-37.4023Q34.3262-34.7656 38.0371-34.7656ZM21.3867-0.292969L87.9883-0.292969Q93.8477-0.292969 96.7529-3.19824Q99.6582-6.10352 99.6582-11.8164L99.6582-58.5938Q99.6582-64.3066 96.7529-67.2363Q93.8477-70.166 87.9883-70.166L21.3867-70.166Q15.625-70.166 12.6953-67.2607Q9.76562-64.3555 9.76562-58.5938L9.76562-11.8164Q9.76562-6.10352 12.6953-3.19824Q15.625-0.292969 21.3867-0.292969ZM21.4844-5.76172Q18.457-5.76172 16.8213-7.37305Q15.1855-8.98438 15.1855-12.1094L15.1855-58.3496Q15.1855-61.5234 16.8213-63.1104Q18.457-64.6973 21.4844-64.6973L87.8906-64.6973Q90.918-64.6973 92.5781-63.1104Q94.2383-61.5234 94.2383-58.3496L94.2383-12.1094Q94.2383-8.98438 92.5781-7.37305Q90.918-5.76172 87.8906-5.76172Z"/>
       </g>
</svg>
