<?xml version="1.0" encoding="UTF-8"?>
<!--Generator: Apple Native CoreSVG 149-->
<!DOCTYPE svg PUBLIC "-//W3C//DTD SVG 1.1//EN" "http://www.w3.org/Graphics/SVG/1.1/DTD/svg11.dtd">
<svg version="1.1" id="Layer_1" xmlns="http://www.w3.org/2000/svg" xmlns:xlink="http://www.w3.org/1999/xlink" x="0px" y="0px" viewBox="0 0 100 100" style="enable-background:new 0 0 712 717;" xml:space="preserve">
  <g id="Regular-S" transform="matrix(1 0 0 1 5 85)">
    <path class="multicolor-0:systemGreenColor hierarchical-0:secondary SFSymbolsPreview28CD41" d="M45.5078 3.41797Q53.4668 3.41797 60.4736 0.415039Q67.4805-2.58789 72.8271-7.95898Q78.1738-13.3301 81.2012-20.3125Q84.2285-27.2949 84.2285-35.2539Q84.2285-43.2129 81.2012-50.1953Q78.1738-57.1777 72.8027-62.5488Q67.4316-67.9199 60.4492-70.9229Q53.4668-73.9258 45.459-73.9258Q37.5488-73.9258 30.542-70.9229Q23.5352-67.9199 18.2129-62.5488Q12.8906-57.1777 9.86328-50.1953Q6.83594-43.2129 6.83594-35.2539Q6.83594-27.2949 9.86328-20.3125Q12.8906-13.3301 18.2373-7.95898Q23.584-2.58789 30.5908 0.415039Q37.5977 3.41797 45.5078 3.41797ZM45.5078-2.29492Q38.6719-2.29492 32.6904-4.83398Q26.709-7.37305 22.1924-11.9141Q17.6758-16.4551 15.1367-22.4365Q12.5977-28.418 12.5977-35.2539Q12.5977-42.0898 15.1367-48.0713Q17.6758-54.0527 22.1924-58.5938Q26.709-63.1348 32.666-65.6738Q38.623-68.2129 45.459-68.2129Q52.3438-68.2129 58.3252-65.6738Q64.3066-63.1348 68.8232-58.5938Q73.3398-54.0527 75.9277-48.0713Q78.5156-42.0898 78.5156-35.2539Q78.5156-28.418 75.9521-22.4365Q73.3887-16.4551 68.8721-11.9141Q64.3555-7.37305 58.374-4.83398Q52.3926-2.29492 45.5078-2.29492Z"/>
    <path class="multicolor-0:systemGreenColor hierarchical-1:primary SFSymbolsPreview28CD41" d="M28.7109-35.2051Q28.7109-33.9844 29.5166-33.2031Q30.3223-32.4219 31.5918-32.4219L42.627-32.4219L42.627-21.3867Q42.627-20.1172 43.4082-19.3115Q44.1895-18.5059 45.4102-18.5059Q46.6797-18.5059 47.4854-19.3115Q48.291-20.1172 48.291-21.3867L48.291-32.4219L59.3262-32.4219Q60.5957-32.4219 61.4014-33.2031Q62.207-33.9844 62.207-35.2051Q62.207-36.4746 61.4014-37.2803Q60.5957-38.0859 59.3262-38.0859L48.291-38.0859L48.291-49.1211Q48.291-50.3906 47.4854-51.1963Q46.6797-52.002 45.4102-52.002Q44.1895-52.002 43.4082-51.1963Q42.627-50.3906 42.627-49.1211L42.627-38.0859L31.5918-38.0859Q30.2734-38.0859 29.4922-37.2803Q28.7109-36.4746 28.7109-35.2051Z"/>
  </g>
</svg>

