<?xml version="1.0" encoding="UTF-8"?>
<!--Generator: Apple Native CoreSVG 149-->
<!DOCTYPE svg
PUBLIC "-//W3C//DTD SVG 1.1//EN"
       "http://www.w3.org/Graphics/SVG/1.1/DTD/svg11.dtd">
<svg version="1.1" id="Layer_1" xmlns="http://www.w3.org/2000/svg" xmlns:xlink="http://www.w3.org/1999/xlink" x="0px" y="0px"
	 viewBox="0 0 100 100" style="enable-background:new 0 0 712 717;" xml:space="preserve">
 <!--glyph: "uni100D5F.medium", point size: 100.0, font version: "17.0d9e1", template writer version: "59"-->
  <g id="Regular-S" transform="matrix(1 0 0 1 0 85)">
    <path d="M8.78906-42.041Q8.78906-35.498 11.2549-29.7607Q13.7207-24.0234 18.0664-19.6777Q22.4121-15.332 28.125-12.8906Q33.8379-10.4492 40.4297-10.4492Q45.1172-10.4492 49.4385-11.792Q53.7598-13.1348 57.4219-15.5273L74.3652 1.41602Q75.293 2.34375 76.4404 2.75879Q77.5879 3.17383 78.8086 3.17383Q81.4941 3.17383 83.2031 1.41602Q84.9121-0.341797 84.9121-2.97852Q84.9121-4.24805 84.4727-5.37109Q84.0332-6.49414 83.2031-7.32422L66.3574-24.2188Q69.043-27.9785 70.5078-32.5195Q71.9727-37.0605 71.9727-42.041Q71.9727-48.584 69.5068-54.2969Q67.041-60.0098 62.7197-64.3555Q58.3984-68.7012 52.6611-71.167Q46.9238-73.6328 40.4297-73.6328Q33.8379-73.6328 28.125-71.167Q22.4121-68.7012 18.0664-64.3555Q13.7207-60.0098 11.2549-54.2969Q8.78906-48.584 8.78906-42.041ZM17.8223-42.041Q17.8223-46.7285 19.5557-50.8057Q21.2891-54.8828 24.4141-57.9834Q27.5391-61.084 31.6406-62.8418Q35.7422-64.5996 40.4297-64.5996Q45.0684-64.5996 49.1455-62.8418Q53.2227-61.084 56.3477-57.9834Q59.4727-54.8828 61.2305-50.8057Q62.9883-46.7285 62.9883-42.041Q62.9883-37.3535 61.2305-33.2764Q59.4727-29.1992 56.3477-26.0742Q53.2227-22.9492 49.1455-21.1914Q45.0684-19.4336 40.4297-19.4336Q35.7422-19.4336 31.6406-21.1914Q27.5391-22.9492 24.4141-26.0742Q21.2891-29.1992 19.5557-33.2764Q17.8223-37.3535 17.8223-42.041Z"/>
  </g>
</svg>