<?xml version="1.0" encoding="UTF-8"?>
<!DOCTYPE svg PUBLIC "-//W3C//DTD SVG 1.1//EN" "http://www.w3.org/Graphics/SVG/1.1/DTD/svg11.dtd">
<svg version="1.1" id="Layer_1" xmlns="http://www.w3.org/2000/svg" xmlns:xlink="http://www.w3.org/1999/xlink" x="0px" y="0px" viewBox="0 0 100 100" style="enable-background:new 0 0 712 717;" xml:space="preserve">
       <g id="Regular-S" transform="matrix(1 0 0 1 7 85)">
              <path class="multicolor-0:systemRedColor SFSymbolsPreviewFF3B30" d="M25.5371 4.05273L60.8398 4.05273Q65.1855 4.05273 67.8223 1.51367Q70.459-1.02539 70.7031-5.41992L73.1934-60.1562L77.2461-60.1562Q78.5645-60.1562 79.5166-61.1328Q80.4688-62.1094 80.4688-63.4277Q80.4688-64.7461 79.5166-65.7227Q78.5645-66.6992 77.2461-66.6992L9.08203-66.6992Q7.8125-66.6992 6.83594-65.7227Q5.85938-64.7461 5.85938-63.4277Q5.85938-62.1094 6.83594-61.1328Q7.8125-60.1562 9.08203-60.1562L13.1348-60.1562L15.6738-5.37109Q15.8691-0.976562 18.4814 1.53809Q21.0938 4.05273 25.5371 4.05273ZM26.1719-2.49023Q24.6582-2.49023 23.6328-3.51562Q22.6074-4.54102 22.5098-6.15234L19.9707-60.1562L66.2109-60.1562L63.8184-6.15234Q63.7695-4.54102 62.7441-3.51562Q61.7188-2.49023 60.1074-2.49023ZM31.8848-8.54492Q33.1055-8.54492 33.8623-9.25293Q34.6191-9.96094 34.5703-11.084L33.4473-51.123Q33.4473-52.2949 32.6904-52.9785Q31.9336-53.6621 30.7617-53.6621Q29.541-53.6621 28.8086-52.9541Q28.0762-52.2461 28.0762-51.123L29.1992-11.084Q29.248-9.91211 29.9805-9.22852Q30.7129-8.54492 31.8848-8.54492ZM43.1641-8.54492Q44.4336-8.54492 45.1904-9.25293Q45.9473-9.96094 45.9473-11.084L45.9473-51.123Q45.9473-52.2461 45.1904-52.9541Q44.4336-53.6621 43.1641-53.6621Q41.9434-53.6621 41.1621-52.9541Q40.3809-52.2461 40.3809-51.123L40.3809-11.084Q40.3809-9.96094 41.1621-9.25293Q41.9434-8.54492 43.1641-8.54492ZM54.4922-8.54492Q55.6152-8.54492 56.3721-9.22852Q57.1289-9.91211 57.1777-11.084L58.252-51.123Q58.3008-52.2461 57.5439-52.9541Q56.7871-53.6621 55.5664-53.6621Q54.3945-53.6621 53.6621-52.9785Q52.9297-52.2949 52.8809-51.123L51.8066-11.084Q51.7578-9.96094 52.4902-9.25293Q53.2227-8.54492 54.4922-8.54492ZM26.123-63.623L33.0566-63.623L33.0566-71.8262Q33.0566-73.3398 34.0088-74.2432Q34.9609-75.1465 36.5234-75.1465L49.7559-75.1465Q51.2695-75.1465 52.2217-74.2432Q53.1738-73.3398 53.1738-71.8262L53.1738-63.623L60.1562-63.623L60.1562-72.3145Q60.1562-76.6602 57.4951-79.1504Q54.834-81.6406 50.2441-81.6406L35.9863-81.6406Q31.3965-81.6406 28.7598-79.1504Q26.123-76.6602 26.123-72.3145Z"/>
       </g>
</svg>

