<?xml version="1.0" encoding="UTF-8"?>
<!--Generator: Apple Native CoreSVG 149-->
<!DOCTYPE svg
PUBLIC "-//W3C//DTD SVG 1.1//EN"
       "http://www.w3.org/Graphics/SVG/1.1/DTD/svg11.dtd">
<svg version="1.1" id="Layer_1" xmlns="http://www.w3.org/2000/svg" xmlns:xlink="http://www.w3.org/1999/xlink" x="0px" y="0px" viewBox="0 0 100 100" style="enable-background:new 0 0 712 717;" xml:space="preserve">
     
       <!--glyph: "uni100D5F.medium", point size: 100.0, font version: "17.0d9e1", template writer version: "59"-->
      

        <g id="Regular-S" transform="matrix(1 0 0 1 0 85)">
   <path class="hierarchical-0:secondary SFSymbolsPreview4D4D4D" d="M22.2168 5.46875L66.0156 5.46875Q72.2656 5.46875 75.3662 2.39258Q78.4668-0.683594 78.4668-6.83594L78.4668-44.3848Q78.4668-50.5371 75.3662-53.6133Q72.2656-56.6895 66.0156-56.6895L55.5176-56.6895L55.5176-49.6094L65.918-49.6094Q68.5547-49.6094 69.9951-48.2178Q71.4355-46.8262 71.4355-44.043L71.4355-7.17773Q71.4355-4.39453 69.9951-3.00293Q68.5547-1.61133 65.918-1.61133L22.3145-1.61133Q19.6777-1.61133 18.2373-3.00293Q16.7969-4.39453 16.7969-7.17773L16.7969-44.043Q16.7969-46.8262 18.2373-48.2178Q19.6777-49.6094 22.3145-49.6094L32.7148-49.6094L32.7148-56.6895L22.2168-56.6895Q16.0156-56.6895 12.8906-53.6133Q9.76562-50.5371 9.76562-44.3848L9.76562-6.83594Q9.76562-0.683594 12.8906 2.39258Q16.0156 5.46875 22.2168 5.46875Z"/>
   <path class="hierarchical-1:primary SFSymbolsPreview212121" d="M44.0918-24.8047Q45.5078-24.8047 46.5576-25.8057Q47.6074-26.8066 47.6074-28.2227L47.6074-66.3086L47.3145-72.168L49.3652-69.9219L54.7363-64.1113Q55.6152-63.0859 57.0801-63.0859Q58.4473-63.0859 59.375-63.9404Q60.3027-64.7949 60.3027-66.1133Q60.3027-67.3828 59.2285-68.4082L46.6309-80.4688Q45.9961-81.1523 45.3857-81.3965Q44.7754-81.6406 44.0918-81.6406Q43.457-81.6406 42.8467-81.3965Q42.2363-81.1523 41.5527-80.4688L28.9551-68.4082Q27.9297-67.3828 27.9297-66.1133Q27.9297-64.7949 28.8086-63.9404Q29.6875-63.0859 31.1035-63.0859Q32.5684-63.0859 33.4961-64.1113L38.8672-69.9219L40.918-72.168L40.625-66.3086L40.625-28.2227Q40.625-26.8066 41.6748-25.8057Q42.7246-24.8047 44.0918-24.8047Z"/>
  </g>
</svg>

