<?xml version="1.0" encoding="utf-8"?>
<!-- Generator: Adobe Illustrator 23.1.0, SVG Export Plug-In . SVG Version: 6.00 Build 0)  -->
<svg version="1.1" id="Layer_1" xmlns="http://www.w3.org/2000/svg" xmlns:xlink="http://www.w3.org/1999/xlink" x="0px" y="0px"
	 viewBox="0 0 712 717" style="enable-background:new 0 0 712 717;" xml:space="preserve">
<style type="text/css">
	.logo-light-st0{fill:#10ACF5;}
	.logo-light-st1{fill:#79D4FE;}
</style>
<path class="logo-light-st0" d="M378.7,40.8c3.4,0.5,6.8,1,10.3,1.3c19.5,1.6,38.6,5.4,57.3,10.9c18.7,5.4,37,12.2,54,21.6
	c12.5,6.9,24.6,14.6,36.8,21.9c1.8,1.1,2.5,2.2,0.7,4.1c-13.2,14-26.1,28.3-39.7,42c-16.8,16.9-34,33.4-52.9,47.9
	c-18.6,14.3-37.2,28.8-56.2,42.4c-26.1,18.7-53.5,35.4-81.6,50.8c-12.6,6.9-25.1,14.2-38.1,20.4c-15.8,7.7-31.8,14.9-48.1,21.5
	c-19.9,8.1-40,15.9-60.3,22.9c-34,11.7-69,20-104.3,27.1c-1.8,0.4-3.7,0.5-5.6,0.7c-0.3-3.4-0.8-6.6-0.8-9.9c-0.1-8,0-16,0-24
	c-0.1-16.5,1.5-32.9,5-49c3.2-14.5,6.7-29,10.9-43.2c5.6-18.9,14.4-36.5,24.1-53.7c8.1-14.5,17.4-28.3,27.8-41.3
	c9.7-12.2,20.5-23.5,32.1-33.9c11.9-10.7,24.3-20.9,37.9-29.5c20.8-13.4,42.6-25.1,66-33.3c20.7-7.2,41.7-12.8,63.5-15.2
	c6.4-0.7,12.8-1.3,19.1-2c0.6-0.1,1.2-0.4,1.9-0.7C351.8,40.8,365.2,40.8,378.7,40.8z"/>
<path class="logo-light-st1" d="M77.1,477.7c6.7-1.3,13.1-2.3,19.3-3.8c18.8-4.7,37.6-9.3,56.2-14.6c14.2-4,28.3-8.4,42.1-13.5
	c17.6-6.4,34.9-13.5,52.2-20.6c9.6-3.9,19.2-8.1,28.6-12.7c13.9-6.9,27.6-14.2,41.2-21.5c10.3-5.5,20.6-11.1,30.7-17
	c11.5-6.7,22.9-13.6,34.1-20.9c14.1-9.2,28.2-18.5,41.7-28.5c15.1-11.1,29.8-22.6,44.3-34.4c9.1-7.4,17.6-15.5,26.2-23.5
	c12.3-11.5,24.8-22.7,36.5-34.8c12.3-12.7,23.8-26.2,35.3-39.6c7.6-8.9,14.6-18.2,21.8-27.5c3.2-4.1,6-8.6,9.4-13.6
	c3.1,4,6.2,7.3,8.7,11c6.2,9.1,12.2,18.3,18.2,27.5c0.6,0.9,0.8,2.3,0.5,3.4c-4.5,18.1-10.5,35.8-18.4,52.8
	c-5.3,11.4-10.6,22.8-16.4,33.9c-9.5,18.2-20.1,35.7-32.4,52.1c-6.8,8.9-13.2,18.2-20.1,27c-6.9,8.8-14,17.6-21.5,25.9
	c-13.8,15.2-27.4,30.7-42,45c-14.1,13.8-29.2,26.7-44.4,39.4c-13.4,11.3-27.2,22.1-41.3,32.5c-15.5,11.4-31.5,22.3-47.5,33.1
	c-20.1,13.6-40.9,25.9-62.5,37c-17.5,8.9-35,17.7-52.6,26.3c-9.4,4.5-19.1,8.4-28.7,12.4c-1.2,0.5-3.1,0.3-4.1-0.4
	c-13-7.9-25.1-17.1-36.4-27.3c-7.6-6.9-15.1-13.8-22.3-21c-10.5-10.7-19.5-22.6-28.1-34.9C94.5,511.4,85.6,495.1,77.1,477.7z"/>
<path class="logo-light-st0" d="M327.8,656.2c4.7-3,9.5-5.8,14.1-8.9c20.2-13.4,40.6-26.3,60.3-40.4c17.7-12.7,34.8-26.5,51.7-40.3
	c10.6-8.7,20.5-18.2,30.4-27.7c10.2-9.7,20.4-19.5,29.9-29.9c12.8-14,25.5-28.1,37.2-43c12.8-16.2,25.3-32.8,36.3-50.2
	c11.2-17.7,20.5-36.5,30.3-55c8-14.9,13.8-30.7,18.9-46.7c4.9-15.3,8.8-30.9,11.2-46.8c0.8-5.6,1.6-11.3,2.5-17.5
	c0.7,0.6,1.5,0.9,1.7,1.5c5.4,17.1,9.5,34.5,12.3,52.2c3,19.6,3.6,39.2,3,58.9c-0.3,10.7-1.8,21.4-3,32c-1.8,16-5.6,31.6-10.2,46.9
	c-5.8,19.2-13.4,37.7-23.4,55.1c-5.1,8.9-10,18.1-15.9,26.5c-7.9,11.3-16.2,22.3-25.2,32.7c-18.1,21-39.2,38.7-62.5,53.6
	c-20.2,12.9-41.4,23.8-64.1,31.8c-17.1,6-34.6,10.6-52.4,13.7c-9.7,1.7-19.7,2.7-29.6,3.2c-13.4,0.7-26.8,0.7-40.2,0.7
	c-4.4,0-8.7-0.9-13.1-1.3C328,656.8,327.9,656.5,327.8,656.2z"/>
</svg>
