<?xml version="1.0" encoding="utf-8"?>
<!-- Generator: Adobe Illustrator 23.1.0, SVG Export Plug-In . SVG Version: 6.00 Build 0)  -->
<svg version="1.1" id="Layer_1" xmlns="http://www.w3.org/2000/svg" xmlns:xlink="http://www.w3.org/1999/xlink" x="0px" y="0px"
	 viewBox="0 0 2311 698" style="enable-background:new 0 0 2311 698;" xml:space="preserve">
<style type="text/css">
	.type-light-st0{fill:#242F3D;}
	.type-light-st1{fill:#10ACF5;}
</style>
<path class="type-light-st0" d="M2208,505.9c-20.3,0-40.7,0-61.3,0c0-118.8,0-237.2,0-356.2c20.4,0,40.9,0,61.3,0
	C2208,268.4,2208,387.2,2208,505.9z"/>
<path class="type-light-st0" d="M1490,299.5c10.5,12,18.2,25.2,22,40.3c8.7,35.4,5.6,69.2-15.1,100.1c-7.4,11.2-17.5,19.6-29.4,25.8
	c-0.8,0.4-1.7,0.9-2.5,1.3c-0.2,0.1-0.3,0.3-0.7,0.8c2.1,1.2,4.1,2.3,6,3.4c18.3,10.5,32.6,24.6,39.8,45c4.4,12.5,5.6,25.5,5.2,38.6
	c-1,28.7-10.5,53.9-31.4,74.1c-16.1,15.6-35.5,25-57.2,29.7c-33,7.2-65.6,5.8-97-7.4c-32.7-13.8-55-37.3-64.2-72.1
	c-2.4-9.1-3.7-18.4-3.2-28.1c20.4,0,40.6,0,61.1,0c0.4,3.1,0.7,6.4,1.4,9.6c2.9,14.1,10.7,25,22.8,32.2c27.2,16,55.1,16.7,82.4,0.8
	c17.4-10.1,24.2-26.9,22.9-46.6c-1.3-19.5-12.6-32.1-29.8-39.9c-11.9-5.4-24.6-6.8-37.5-7c-21.9-0.2-43.1-4.4-62.7-14.5
	c-26.1-13.4-43.8-34.2-52.9-62c-11-33.6-11.6-67.5,1.4-100.6c16-40.7,46.8-64.5,89.1-73.5c22.4-4.8,44.9-4.7,67,2.1
	c6.8,2.1,13.2,5.5,20,8.5c7.9-9.8,16.1-20.1,24.5-30.5c15.4,11.5,30.6,22.8,45.9,34.4C1508.6,275.8,1499.4,287.5,1490,299.5z
	 M1454.7,374c0-9.3-1.2-18.4-4.4-27.1c-9.6-25.8-27.9-41.2-55.5-43.4c-26.1-2.1-47.1,8-60.7,30.8c-10.8,18-12.6,37.8-8.2,58
	c5.1,23.4,18.5,40.2,41.5,47.7c23.8,7.8,46.2,4.3,65.4-12.6C1448.7,413.4,1454.4,394.7,1454.7,374z"/>
<path class="type-light-st1" d="M248.2,319.1c-7.8-2.5-15-5.5-22.5-7.1c-34.4-7.3-74.3,7-88.7,43c-18.2,45.6,10,87.4,48.7,96.2
	c39.8,9,78.3-16.6,85.7-57.4c1-5.8,1.6-11.7,1.6-17.5c0.1-77.6,0.1-155.3,0.1-232.9c0-1.5,0-3,0-4.8c20,0,39.7,0,59.9,0
	c0,1.3,0,2.5,0,3.8c0,78.2,0.1,156.4,0,234.6c0,26.7-4.8,52.3-19,75.4c-20.5,33.4-50.4,52.7-89.2,57.7c-27.1,3.5-53.8,1.6-78.9-9.7
	C106,482.5,82,451.7,74.3,408.7c-4.7-26.3-3.7-52.5,6.2-77.5c17.3-43.7,49.9-69.3,96.1-77.6c23.4-4.2,46.4-2.5,69.1,4.7
	c1.6,0.5,2.7,0.9,2.7,3C248.2,280.5,248.2,299.7,248.2,319.1z"/>
<path class="type-light-st0" d="M2058.1,288.2c0.7-11.3,1.3-22,2-33c19.9,0,39.5,0,59.3,0c0,83.4,0,166.8,0,250.5c-19.3,0-38.7,0-58.3,0
	c-1-11.7-2-23.3-3-35c-0.4,0.2-0.8,0.2-0.9,0.4c-10.1,17.9-26.1,28.4-44.7,35.3c-40.8,15.2-93,5.5-125.6-23.4
	c-18.6-16.5-29.9-37.4-35.3-61.4c-7.5-33.2-7.3-66.2,5.3-98.2c14.9-37.9,43.3-60.7,82.4-70.4c22.2-5.5,44.7-6.7,67.1-0.6
	c20.7,5.7,38.3,16.2,50.4,34.5C2057,287.3,2057.3,287.5,2058.1,288.2z M2057.1,380.1c-0.3-3.3-0.5-7.2-0.9-11.1
	c-4.4-37.6-32.5-63.6-70.2-64.4c-23.4-0.5-43.8,6.6-59.5,24.7c-10.7,12.4-15.8,27.1-17,43.3c-1.4,18.5,1.6,36.2,11.9,52
	c13.5,20.5,33.3,30.3,57.3,31.8c18,1.1,35-2.7,49.5-13.9C2048.4,426.8,2056.3,405.3,2057.1,380.1z"/>
<path class="type-light-st1" d="M825.4,288.4c0.7-11.6,1.4-22.3,2-33.1c20,0,39.6,0,59.4,0c0,83.5,0,166.8,0,250.5c-19.3,0-38.7,0-58.4,0
	c-1-11.6-2-23.3-3-34.9c-3.7,4.8-7,9.8-11.1,14c-14.1,14.7-31.9,23.1-51.6,26.4c-39.6,6.6-76.2-1.1-107.5-27.4
	c-19.3-16.2-30.6-37.7-36.2-62c-7-30.1-7.1-60.3,2.3-89.9c13.4-42.3,42.6-68.1,85.2-78.8c22.1-5.5,44.5-6.7,66.7-0.7
	c20.8,5.6,38.6,16.1,50.8,34.5C824.3,287.2,824.6,287.5,825.4,288.4z M824.5,379.9c-0.3-3.3-0.5-7.2-1-11.1
	c-4.3-37.3-32.4-63.3-69.9-64.3c-23.4-0.6-43.9,6.5-59.6,24.5c-10.8,12.3-15.9,27.1-17.2,43.2c-1.5,18.7,1.5,36.5,12,52.3
	c13.5,20.5,33.4,30.2,57.4,31.7c17.9,1.1,34.8-2.7,49.2-13.8C815.7,426.9,823.7,405.3,824.5,379.9z"/>
<path class="type-light-st1" d="M404.9,402.6c3.2,20.1,13.7,34.2,31.1,43.4c14.9,7.9,31,10.4,47.5,9.6c19.1-0.8,37.2-5.5,53.7-15.5
	c3.5-2.1,6.6-4.8,10.6-7.8c12.5,13.2,25.2,26.6,38.4,40.4c-4,3.3-8.7,7.6-13.8,11.3c-19.1,13.9-40.8,21.8-63.9,25.7
	c-29.5,4.9-58.7,3.5-87-6.8c-41.9-15.2-67.3-45.3-77-88.5c-6.8-30.6-5.7-61.2,6.4-90.5c16.4-39.9,46.8-63.7,88.5-73
	c26.9-6,53.9-5.3,80.4,2.3c41.4,11.9,66.7,39.7,77.4,81.1c5.5,21.6,6,43.5,4.3,65.6c-0.2,2.5-1.4,2.7-3.4,2.7
	c-15.5-0.1-31.1,0-46.6,0c-47.2,0-94.5,0-141.7,0C408.3,402.6,406.9,402.6,404.9,402.6z M406.1,350.9c45.3,0,90.2,0,135.2,0
	c-2.7-18.7-11.6-32.6-28.4-41c-11.2-5.6-23.2-7.5-35.5-7.6c-19.9-0.1-38.2,4.7-53.3,18.5C415.2,328.9,409.5,339,406.1,350.9z"/>
<path class="type-light-st0" d="M1857.1,505.9c-1.1,0-2.2,0-3.2,0c-22.7,0-45.5,0-68.2,0.1c-2.3,0-3.9-0.7-5.4-2.5
	c-31-35.9-62.1-71.7-93.2-107.6c-0.7-0.8-1.5-1.6-2.8-3c0,38,0,75.2,0,112.7c-20.8,0-41.3,0-62,0c0-118.6,0-237,0-355.7
	c20.5,0,41,0,61.8,0c0,68.1,0,136.4,0,205.5c1.3-1.4,2-2.1,2.7-2.8c26.5-31.6,53-63.1,79.4-94.7c1.7-2.1,3.5-2.9,6.2-2.9
	c22.3,0.1,44.5,0.1,66.8,0.1c1.3,0,2.6,0,5.1,0c-1.4,2.6-2.1,4.7-3.4,6.1c-32.5,36.5-65.1,72.9-97.7,109.3c-0.7,0.8-1.3,1.6-2.2,2.7
	c3.1,3.4,6.1,6.8,9.2,10.2c34.7,38.1,69.4,76.3,104.1,114.4C1856.5,500,1858.5,502.1,1857.1,505.9z"/>
<path class="type-light-st0" d="M1127.3,512.2c-27.4-0.6-53.1-6.6-76-22c-29.7-20-46.3-48.5-52.4-83.3c-5.1-29-2.5-57.3,9.8-84.3
	c18.1-39.7,49.2-63.2,91.9-70.9c31.5-5.6,62.3-2.2,90.9,13c36.3,19.4,57.3,50.3,64.4,90.3c5.8,32.6,1.7,64.1-14.5,93.4
	c-19.2,34.6-49.2,54.2-87.8,61C1144.9,510.9,1136,511.3,1127.3,512.2z M1195.4,379.3c-0.1-14.8-4.5-29.8-13.4-43.5
	c-27.8-42.5-91-38.8-113.5,4.8c-8.3,16.1-11.1,33.1-8.9,51c4.2,34.8,27.4,62.4,66.3,62.8c26.9,0.3,47.6-10.7,60.4-34.8
	C1192.7,407.5,1195.3,394.4,1195.4,379.3z"/>
<path class="type-light-st1" d="M980.8,505.7c-20.5,0-40.7,0-61.1,0c0-118.6,0-237,0-355.7c20.2,0,40.5,0,61.1,0
	C980.8,268.4,980.8,386.9,980.8,505.7z"/>
<path class="st0" d="M1592.8,505.7c-20.7,0-41.1,0-61.8,0c0-84,0-167.9,0-251.9c20.6,0,41.1,0,61.8,0
	C1592.8,337.7,1592.8,421.6,1592.8,505.7z"/>
<path class="st0" d="M1561.9,147.5c21.4,0,36.7,14.9,36.7,35.8c0,21.8-15.1,37-36.8,36.9c-21.2-0.1-36.5-15.1-36.5-35.7
	C1525.3,162.4,1540,147.5,1561.9,147.5z"/>
</svg>
